<svg xmlns="http://www.w3.org/2000/svg" width="316.1486991907447" height="316.3068526170532" viewBox="0 0 1999 2000" version="1.1"><path d="M 931.500 1.071 C 884.479 4.790, 850.026 9.223, 812 16.449 C 776.059 23.278, 712.179 40.137, 679 51.548 C 654.878 59.845, 582.200 89.288, 556.741 101.077 C 482.892 135.276, 397.981 193.924, 321.026 263.888 C 302.465 280.762, 262.429 321.323, 246.878 339.009 C 213.860 376.558, 172.619 432.509, 146.252 475.527 C 127.976 505.345, 101.286 554.896, 92.941 574.500 C 90.600 580, 85.636 591.475, 81.910 600 C 70.788 625.447, 57.824 659.060, 50.862 680.500 C 24.906 760.435, 10.789 827.169, 2.843 907.500 C 0.972 926.413, 0.608 937.498, 0.249 986.500 C -0.304 1061.952, 2.020 1100.180, 10.582 1156.500 C 12.970 1172.202, 13.536 1175.316, 18.038 1197.500 C 39.990 1305.683, 86.507 1424.493, 145.282 1522.500 C 201.520 1616.274, 275.393 1702.375, 353 1764.599 C 378.069 1784.699, 427.451 1822.015, 438.500 1829.207 C 551.693 1902.894, 642.849 1942.904, 767 1973.393 C 823.978 1987.385, 870.643 1994.176, 942.830 1998.980 C 962.640 2000.298, 1036.360 2000.298, 1056.170 1998.980 C 1138.313 1993.513, 1189.357 1985.276, 1260.500 1966.007 C 1372.757 1935.601, 1462.088 1894.297, 1569.257 1823.249 C 1661.650 1761.996, 1756.793 1665.846, 1830.739 1559 C 1858.500 1518.889, 1886.820 1469.329, 1902.741 1433 C 1921.520 1390.151, 1954.805 1300.409, 1962.827 1271 C 1963.352 1269.075, 1964.979 1263.450, 1966.443 1258.500 C 1974.054 1232.754, 1983.787 1188.247, 1988.420 1158 C 1992.542 1131.091, 1996.235 1093.277, 1997.676 1063.225 C 1998.060 1055.215, 1998.645 1050.396, 1999.095 1051.545 C 1999.515 1052.620, 1999.838 1027.175, 1999.811 995 C 1999.785 962.825, 1999.458 937.850, 1999.084 939.500 C 1998.628 941.515, 1998.168 938.725, 1997.683 931 C 1992.303 845.294, 1975.242 761.827, 1944.331 670 C 1907.545 560.716, 1846.365 452.612, 1768.607 359.500 C 1696.469 273.118, 1613.418 200.803, 1524.716 147.138 C 1400.030 71.702, 1270.198 26.697, 1122 7.538 C 1102.586 5.029, 1094.210 4.223, 1059 1.482 C 1038.793 -0.091, 949.817 -0.378, 931.500 1.071 M 948.500 11.038 C 898.663 13.627, 851.783 19.965, 797 31.519 C 757.164 39.921, 684.789 61.610, 647.500 76.321 C 626.258 84.701, 578.132 105.368, 563.500 112.394 C 503.984 140.972, 415.548 199.420, 361.500 245.897 C 234.731 354.908, 142.495 482.814, 81.269 634.500 C 40.720 734.958, 17.190 840.374, 10.977 949.404 C 9.511 975.146, 9.512 1029.859, 10.980 1056 C 15.807 1141.971, 32.078 1223.391, 62.937 1316 C 77.634 1360.104, 89.958 1389.985, 110.988 1432.500 C 173.846 1559.581, 267.444 1678.439, 372.326 1764.372 C 433.509 1814.501, 529.661 1873.243, 604.803 1906.399 C 674.051 1936.955, 762.130 1963.265, 839.146 1976.400 C 903.323 1987.345, 977.361 1991.889, 1044.097 1988.980 C 1221.019 1981.265, 1391.064 1925.165, 1541.500 1824.880 C 1695.489 1722.227, 1818.726 1579.689, 1895.015 1416 C 1959.734 1277.135, 1987.115 1147.935, 1987.311 980.500 C 1987.368 930.817, 1986.188 910.529, 1980.968 871.500 C 1970.226 791.185, 1948.157 712.657, 1909.105 615.794 C 1888.279 564.139, 1861.827 514.900, 1821.649 453 C 1794.573 411.286, 1771.462 380.630, 1747.014 354 C 1741.207 347.675, 1733.475 338.900, 1729.831 334.500 C 1718.836 321.223, 1677.196 281.018, 1647.390 254.899 C 1626.417 236.520, 1566.212 190.755, 1541.194 174.173 C 1505.392 150.443, 1470.574 130.285, 1435.500 112.980 C 1414.601 102.669, 1369.630 83.354, 1343 73.251 C 1254.238 39.577, 1158.352 18.810, 1060 11.958 C 1039.859 10.555, 969.039 9.970, 948.500 11.038 M 1301 806.894 C 1286.449 810.866, 1276.349 818.819, 1270.693 830.759 C 1267.612 837.264, 1267.500 837.955, 1267.500 850.500 C 1267.500 861.616, 1267.827 864.342, 1269.759 869.313 C 1276.040 885.470, 1286.876 895.324, 1303.932 900.388 C 1322.246 905.824, 1346.374 896.560, 1356.991 880.014 C 1365.989 865.992, 1366.507 845.816, 1358.287 829.583 C 1355.203 823.494, 1346.948 814.640, 1341.228 811.288 C 1330.468 804.982, 1314.426 803.230, 1301 806.894 M 69.005 813.250 C 69.008 813.938, 70.790 816.750, 72.965 819.500 C 83.985 833.429, 85.721 839.435, 87.136 868.500 C 88.451 895.524, 87.604 1144.033, 86.169 1152.288 C 84.201 1163.602, 81.898 1168.993, 76.511 1174.888 C 71.402 1180.479, 67 1186.272, 67 1187.404 C 67 1187.732, 99.175 1188, 138.500 1188 C 177.825 1188, 210 1187.757, 210 1187.460 C 210 1185.327, 205.271 1178.673, 200.775 1174.478 C 196.303 1170.306, 195.113 1168.444, 193.745 1163.478 C 190.767 1152.663, 190 1131.897, 189.999 1062.050 L 189.999 993.500 225.237 993.821 C 244.618 993.997, 260.651 994.318, 260.867 994.534 C 261.807 995.473, 261.243 1136.304, 260.258 1146.500 C 258.672 1162.931, 256.639 1167.533, 244.642 1181.845 C 242.639 1184.234, 241 1186.597, 241 1187.095 C 241 1187.627, 270.492 1188, 312.526 1188 L 384.051 1188 382.602 1185.250 C 381.804 1183.737, 378.863 1179.800, 376.065 1176.500 C 369.646 1168.928, 366.390 1162.270, 365.060 1154 C 364.368 1149.693, 364.013 1097.379, 364.008 998.910 C 364 853.162, 364.039 850.169, 366.017 842.433 C 368.084 834.353, 369.249 832.261, 377.959 821 C 380.724 817.425, 382.990 813.938, 382.993 813.250 C 382.999 812.262, 368.137 812, 312 812 C 272.950 812, 241 812.243, 241 812.540 C 241 814.136, 245.170 820.837, 247.509 823 C 251.624 826.806, 255.461 832.854, 257.975 839.500 C 260.097 845.108, 260.307 847.817, 261.205 881 C 262.122 914.939, 261.797 942.784, 260.401 949.750 L 259.750 953 225.507 953 L 191.263 953 190.600 948.750 C 188.136 932.949, 189.491 850.650, 192.367 841.500 C 193.231 838.750, 197.327 831.581, 201.469 825.570 C 205.611 819.558, 209 814.046, 209 813.320 C 209 812.239, 196.310 812, 139 812 C 83.664 812, 69.001 812.262, 69.005 813.250 M 964.361 813.497 C 964.677 814.321, 968.276 819.833, 972.359 825.747 C 984.581 843.452, 983.227 829.411, 984.196 948.500 C 984.724 1013.367, 984.671 1071.314, 984.056 1102.500 C 982.827 1164.870, 982.912 1164.427, 969.309 1179.307 C 966.389 1182.501, 964 1186.029, 964 1187.146 C 964 1189.177, 964.077 1189.178, 1030.750 1188.463 C 1067.463 1188.069, 1097.667 1187.599, 1097.872 1187.418 C 1098.076 1187.238, 1095.266 1183.357, 1091.627 1178.795 C 1084.194 1169.475, 1080.819 1163.070, 1079.090 1155 C 1077.366 1146.955, 1076.790 1120.967, 1077.714 1093 L 1078.525 1068.500 1082.787 1075 C 1085.132 1078.575, 1090.922 1089.150, 1095.654 1098.500 C 1100.386 1107.850, 1108.090 1122.191, 1112.773 1130.369 C 1122.172 1146.782, 1126.168 1157.401, 1126.368 1166.500 C 1126.475 1171.367, 1125.887 1173.795, 1123.250 1179.362 C 1121.463 1183.137, 1120 1186.849, 1120 1187.612 C 1120 1188.781, 1129.711 1189, 1181.500 1189 C 1231.285 1189, 1243 1188.752, 1243 1187.700 C 1243 1186.986, 1240.752 1183.723, 1238.003 1180.450 C 1228.484 1169.113, 1223.748 1162.439, 1216.024 1149.473 C 1199.964 1122.512, 1166.313 1060.524, 1147.145 1022.588 L 1138.094 1004.677 1140.272 1001.588 C 1144.739 995.255, 1160.651 979.716, 1169.918 972.637 C 1175.188 968.612, 1186.475 960.687, 1195 955.026 C 1212.199 943.606, 1218 939.289, 1218 937.906 C 1218 937.347, 1200.032 937.083, 1172.750 937.240 L 1127.500 937.500 1128 942 C 1128.275 944.475, 1128.471 950.550, 1128.435 955.500 C 1128.379 963.257, 1127.995 965.230, 1125.650 969.787 C 1122.432 976.040, 1106.957 993.746, 1090.082 1010.484 L 1078 1022.469 1078 936.918 C 1078 880.819, 1078.366 849.389, 1079.062 845.622 C 1080.576 837.433, 1083.034 832.289, 1088.442 825.998 C 1093.515 820.095, 1097.305 813.638, 1096.290 812.624 C 1095.947 812.281, 1065.994 812, 1029.726 812 C 971.574 812, 963.854 812.177, 964.361 813.497 M 1582.538 922.517 C 1557.565 926.592, 1533.188 936.965, 1521.121 948.653 C 1518.085 951.594, 1515.473 954, 1515.317 954 C 1514.465 954, 1510 943.711, 1510 941.749 C 1510 936.571, 1508.927 936.478, 1452.738 936.759 L 1400.975 937.018 1403.410 941.759 C 1404.750 944.367, 1407.892 949.382, 1410.393 952.904 C 1419.068 965.118, 1418.500 957.470, 1418.500 1062 C 1418.500 1166.510, 1418.964 1160.084, 1410.529 1172.404 C 1408.089 1175.969, 1404.939 1181.161, 1403.529 1183.943 L 1400.966 1189 1464.983 1189 C 1500.192 1189, 1529 1188.753, 1529 1188.450 C 1529 1187.139, 1525.346 1180.948, 1520.463 1173.984 C 1511.130 1160.675, 1511.500 1164.248, 1511.500 1087.500 C 1511.500 1021.791, 1511.543 1020.327, 1513.707 1011.500 C 1518.299 992.774, 1522.277 984.324, 1529.016 978.987 C 1535.069 974.193, 1541.971 971.979, 1552.945 971.310 L 1562.602 970.722 1565.302 976.739 C 1571.362 990.242, 1571.001 984.166, 1570.988 1072.376 C 1570.976 1157.242, 1570.920 1158.459, 1566.632 1166.746 C 1565.708 1168.532, 1562.488 1173.611, 1559.476 1178.035 C 1556.464 1182.458, 1554 1186.735, 1554 1187.539 C 1554 1188.805, 1562.468 1189, 1617.500 1189 C 1663.258 1189, 1681 1188.691, 1681 1187.893 C 1681 1187.284, 1678.007 1182.494, 1674.350 1177.248 C 1663.417 1161.567, 1663.548 1162.306, 1663.522 1116 C 1663.510 1094.275, 1663.910 1058.894, 1664.410 1037.375 C 1665.415 994.212, 1664.818 983.901, 1660.339 967 C 1654.016 943.137, 1640.107 928.586, 1618.745 923.483 C 1609.369 921.243, 1593.017 920.807, 1582.538 922.517 M 495.616 927.586 C 480.383 929.667, 467.562 933.846, 450.500 942.292 C 421.823 956.487, 409.185 973.850, 406.423 1002.844 L 405.723 1010.188 416.094 1020.594 L 426.464 1031 436.022 1031 C 450.649 1031, 460.727 1027.881, 467.569 1021.236 C 473.723 1015.259, 476.170 1008.500, 482.561 979.816 C 485.427 966.958, 488.414 961.074, 494.393 956.514 C 512.347 942.820, 533.861 956.169, 531.669 979.643 C 530.295 994.352, 524.008 1008.012, 514.010 1018.010 C 503.593 1028.428, 494.302 1032.588, 461.709 1041.431 C 423.994 1051.664, 408.973 1061.813, 397.966 1084.500 C 391.736 1097.340, 390.014 1103.924, 389.308 1117.603 C 388.599 1131.323, 390.440 1140.672, 396.038 1151.787 C 403.352 1166.307, 413.570 1176.271, 428.500 1183.441 C 442.847 1190.331, 448.168 1191.486, 465.500 1191.470 C 487.861 1191.450, 495.737 1189.127, 522.835 1174.557 C 528.520 1171.501, 534.280 1169, 535.635 1169 C 538.694 1169, 542.432 1170.901, 551.865 1177.255 C 565.436 1186.396, 568.599 1187.433, 584.160 1187.835 C 595.502 1188.128, 599.215 1187.835, 606.034 1186.111 C 624.734 1181.382, 638.175 1169.430, 644.073 1152.288 C 645.136 1149.199, 645.846 1146.513, 645.652 1146.318 C 645.457 1146.124, 642.109 1146.417, 638.212 1146.970 C 626.166 1148.678, 620.027 1146.459, 616.662 1139.179 C 614.518 1134.539, 614.499 1133.944, 614.370 1067 C 614.263 1011.211, 613.966 997.586, 612.656 988.470 C 607.790 954.606, 595.508 938.852, 567.947 931.124 C 550.108 926.122, 517.878 924.545, 495.616 927.586 M 1795.500 929.008 C 1776.627 931.872, 1757.383 940.204, 1739.961 953.053 C 1727.761 962.052, 1716.912 975.302, 1710.915 988.526 C 1703.059 1005.853, 1701.335 1026.273, 1706.445 1041.472 C 1711.558 1056.681, 1720.803 1068.342, 1735.197 1077.739 C 1745.031 1084.158, 1754.809 1088.226, 1785 1098.459 C 1826.506 1112.527, 1835.849 1116.805, 1845.092 1125.976 C 1850.199 1131.042, 1850.793 1132.101, 1851.938 1138.174 C 1853.023 1143.921, 1852.970 1145.593, 1851.546 1150.489 C 1845.757 1170.404, 1818.621 1176.750, 1788.098 1165.327 C 1768.998 1158.178, 1750.473 1144.874, 1728.808 1122.744 C 1713.536 1107.145, 1708.822 1103.020, 1706.250 1103.007 C 1704.583 1102.998, 1704.450 1168.930, 1706.103 1175.496 C 1707.863 1182.485, 1709.337 1183.237, 1723.101 1184.165 C 1729.731 1184.612, 1735.490 1185.185, 1735.899 1185.438 C 1737.140 1186.205, 1776.604 1192.739, 1790.818 1194.531 C 1809.556 1196.893, 1838.565 1196.215, 1852.310 1193.093 C 1876.583 1187.580, 1896.192 1176.775, 1913.920 1159.143 C 1929.753 1143.397, 1937 1126.710, 1937 1106 C 1937 1085.882, 1929.484 1069.033, 1914.210 1054.909 C 1900.307 1042.053, 1883.313 1033.999, 1850.961 1024.933 C 1806.040 1012.344, 1794.424 1007.696, 1787.109 999.386 C 1780.169 991.502, 1778.687 979.248, 1783.486 969.439 C 1790.222 955.671, 1807.293 949.216, 1824.489 953.933 C 1844.321 959.374, 1862.524 973.114, 1892.474 1005.250 C 1900.034 1013.362, 1906.846 1020, 1907.610 1020 C 1908.775 1020, 1909 1012.968, 1909 976.500 L 1909 933 1903.894 933 C 1901.086 933, 1896.024 933.717, 1892.644 934.593 C 1885.180 936.529, 1876.220 936.136, 1859.681 933.147 C 1832.797 928.288, 1809.955 926.815, 1795.500 929.008 M 617 937.116 C 617 938.879, 623.368 947.029, 629.021 952.500 C 639.280 962.431, 647.137 976.835, 656.022 1002 C 658.643 1009.425, 666.046 1030.125, 672.473 1048 C 697.746 1118.293, 712.109 1158.331, 718.657 1176.739 C 722.421 1187.321, 725.870 1195.860, 726.323 1195.715 C 727.464 1195.349, 762.760 1131.164, 776.207 1105 C 789.062 1079.989, 797.093 1065.313, 801.364 1059.027 L 804.403 1054.554 807.031 1060.527 C 808.477 1063.812, 821.774 1095.407, 836.580 1130.737 C 851.386 1166.067, 863.950 1194.844, 864.500 1194.684 C 867.702 1193.756, 884.119 1156.219, 915.533 1078 C 955.054 979.597, 960.812 966.326, 969.209 954.302 C 974.867 946.199, 980 937.808, 980 936.662 C 980 936.298, 964.925 936, 946.500 936 C 922.653 936, 913 936.319, 913 937.108 C 913 937.718, 915.250 941.045, 918.001 944.501 C 920.752 947.958, 923.892 952.747, 924.979 955.143 C 928.828 963.626, 927.179 976.778, 919.604 998 C 917.739 1003.225, 914.321 1012.900, 912.009 1019.500 C 907.506 1032.354, 900.575 1049.023, 898.150 1052.828 C 897.036 1054.578, 896.483 1054.827, 895.928 1053.828 C 895.521 1053.098, 891.053 1040.350, 885.999 1025.500 C 866.850 969.238, 867.633 973.260, 871.787 952.500 C 873.438 944.250, 874.585 937.163, 874.335 936.750 C 873.630 935.584, 754 935.817, 754 936.985 C 754 938.784, 760.325 948.412, 765.739 954.854 C 773.477 964.060, 778.963 975.676, 788.405 1002.847 C 793.106 1016.376, 793.114 1020.701, 788.455 1029.105 C 786.505 1032.622, 783.110 1039.325, 780.911 1044 C 774.429 1057.781, 771.041 1064.346, 769.091 1066.905 L 767.257 1069.310 766.004 1065.405 C 765.314 1063.257, 757.812 1042.913, 749.332 1020.196 C 737.744 989.152, 733.768 977.326, 733.326 972.586 C 732.678 965.649, 734.460 955.878, 738.585 943.751 C 739.913 939.845, 741 936.504, 741 936.325 C 741 936.146, 713.100 936, 679 936 C 634.036 936, 617 936.307, 617 937.116 M 1246 937.662 C 1246 938.745, 1251.101 947.230, 1254.018 951 C 1255.507 952.925, 1257.533 956.075, 1258.519 958 C 1262.971 966.693, 1262.976 966.793, 1262.988 1062.540 C 1262.998 1141.571, 1262.796 1154.365, 1261.450 1159.531 C 1260.390 1163.599, 1257.701 1168.740, 1252.950 1175.781 C 1249.127 1181.445, 1246 1186.737, 1246 1187.540 C 1246 1188.804, 1254.373 1189, 1308.500 1189 C 1342.875 1189, 1371 1188.742, 1371 1188.427 C 1371 1188.111, 1367.656 1182.690, 1363.569 1176.379 C 1352.277 1158.941, 1353 1166.665, 1353 1063.500 C 1353 961.075, 1352.357 968.275, 1363.081 950.576 C 1366.886 944.295, 1370 938.671, 1370 938.078 C 1370 937.319, 1351.654 937, 1308 937 C 1273.900 937, 1246 937.298, 1246 937.662 M 0.469 996 C 0.469 1028.175, 0.595 1041.338, 0.749 1025.250 C 0.904 1009.162, 0.904 982.837, 0.749 966.750 C 0.595 950.663, 0.469 963.825, 0.469 996 M 521.083 1050.527 C 495.396 1062.838, 476.566 1082.213, 471.541 1101.504 C 468.754 1112.205, 469.931 1129.398, 473.968 1136.940 C 476.199 1141.109, 483.299 1148.112, 487.455 1150.242 C 492.366 1152.760, 503.730 1153.700, 509.708 1152.084 C 518.770 1149.633, 527.823 1139.662, 529.970 1129.766 C 531.173 1124.221, 530.335 1047, 529.072 1047 C 528.726 1047, 525.131 1048.587, 521.083 1050.527" stroke="none" fill="#040404" fill-rule="evenodd"/><path d="M 952.857 79.543 C 774.314 90.927, 608.576 147.453, 471.167 243.825 C 409.927 286.776, 340.554 350.332, 292.116 407.862 C 242.330 466.994, 201.847 530.442, 164.739 607.500 C 152.533 632.847, 149.585 640.219, 146.947 652 C 144.521 662.831, 144.514 669.262, 146.921 676.992 C 149.593 685.581, 153.146 690.237, 161.929 696.664 C 172.859 704.663, 179.335 707.653, 188.557 708.959 C 194.400 709.786, 409.426 710.001, 1002 709.774 C 1745.056 709.489, 1808.009 709.337, 1814.069 707.822 C 1837.099 702.065, 1848.034 687.328, 1847.985 662.114 C 1847.958 648.069, 1843.142 633.828, 1828.140 603.425 C 1802.086 550.626, 1743.680 459.951, 1706.348 414.345 C 1641.865 335.571, 1559.082 263.776, 1472.991 211.962 C 1378.026 154.807, 1270.699 113.707, 1162.500 93.063 C 1094.879 80.161, 1019.456 75.297, 952.857 79.543 M 217.500 1284.114 C 192.475 1284.644, 187.605 1285.002, 181.971 1286.730 C 166.233 1291.557, 156.772 1298.400, 150.923 1309.187 C 147.596 1315.322, 147.502 1315.810, 147.572 1326.500 C 147.712 1347.686, 157.826 1374.881, 182.577 1420.622 C 256.918 1558.008, 363.472 1676.431, 488.500 1760.621 C 523.836 1784.415, 566.055 1808.948, 597.538 1823.983 C 631.291 1840.103, 643.657 1845.482, 673.500 1857.030 C 744.799 1884.619, 831.163 1905.397, 902 1912.004 C 908.325 1912.594, 917.550 1913.502, 922.500 1914.021 C 941.678 1916.035, 985.159 1917.236, 1016 1916.603 C 1073.841 1915.417, 1120.553 1910.294, 1177.477 1898.893 C 1277.448 1878.871, 1379.584 1839.086, 1470.374 1784.802 C 1517.883 1756.396, 1576.944 1713.486, 1611.500 1682.270 C 1636.298 1659.868, 1676.349 1619.401, 1690.859 1602.086 C 1752.706 1528.284, 1786.772 1477.025, 1824.190 1401.464 C 1844.176 1361.103, 1848.011 1351.620, 1849.895 1337.902 C 1851.532 1325.975, 1849.069 1314.320, 1843.067 1305.597 C 1836.409 1295.921, 1824.933 1288.540, 1811.500 1285.297 C 1804.959 1283.718, 1753.365 1283.603, 1025.500 1283.553 C 597.050 1283.524, 233.450 1283.776, 217.500 1284.114" stroke="none" fill="#ec1c24" fill-rule="evenodd"/></svg>