<svg xmlns="http://www.w3.org/2000/svg" xmlns:xlink="http://www.w3.org/1999/xlink" version="1.1" id="layer" x="0px" y="0px" style="enable-background:new 0 0 652 652;" xml:space="preserve" viewBox="-109.9 71.0 860.6 500.1" width="414.5022081206718" height="241.25323832023477">
<style type="text/css">
	.st0{fill-rule:evenodd;clip-rule:evenodd;fill:#00B8F2;}
	.st1{fill-rule:evenodd;clip-rule:evenodd;fill:#FFFFFF;}
	.st2{fill:#00B8F2;}
</style>
<path class="st0" d="M-109.9,156.9C10.4,105.4,162.6,71,321,71c160.8,0,308.1,33.1,429.7,84.7l-97,415H-16.6L-109.9,156.9z"/>
<g>
	<defs>
		<path id="SVGID_1_" d="M-109.9,156.9C10.4,105.4,162.6,71,321,71c160.8,0,308.1,33.1,429.7,84.7l-97,415H-16.6L-109.9,156.9z"/>
	</defs>
	<clipPath id="SVGID_2_">
		<use xlink:href="#SVGID_1_" style="overflow:visible;"/>
	</clipPath>
</g>
<path class="st1" d="M-73.1,179L9.1,537.5h623.7l81-358.5c-112.9-45.4-248-73.7-392.9-73.7C174.9,105.4,39.8,133.6-73.1,179"/>
<g>
	<defs>
		<path id="SVGID_3_" d="M-73.1,179L9.1,537.5h623.7l81-358.5c-112.9-45.4-248-73.7-392.9-73.7C174.9,105.4,39.8,133.6-73.1,179"/>
	</defs>
	<clipPath id="SVGID_4_">
		<use xlink:href="#SVGID_3_" style="overflow:visible;"/>
	</clipPath>
</g>
<path class="st0" d="M-54.7,190.1c113-45.4,230.8-70,375.7-70c144.9,0,262.7,22.1,375.7,66.3l-76.1,335.2H20.2L-54.7,190.1z"/>
<g>
	<defs>
		<path id="SVGID_5_" d="M-54.7,190.1c113-45.4,230.8-70,375.7-70c144.9,0,262.7,22.1,375.7,66.3l-76.1,335.2H20.2L-54.7,190.1z"/>
	</defs>
	<clipPath id="SVGID_6_">
		<use xlink:href="#SVGID_5_" style="overflow:visible;"/>
	</clipPath>
</g>
<path class="st1" d="M174.9,463.9c17.2-3.7,44.2-17.2,44.2-51.6c0-33.2-24.6-41.7-44.2-44.2v7.4c20.9,7.4,25.8,30.7,25.8,41.7  c0,23.3-9.8,36.8-25.8,41.7V463.9z M130.7,451.6c0,12.3-9.8,6.1-9.8,12.3c0,2.5,3.7,1.2,6.1,1.2h12.3h28.2c2.5,0,4.9-1.2,7.4-1.2  V459c-3.7,1.2-7.4,1.2-11.1,1.2c-4.9,0-14.7-1.2-14.7-9.8v-65.1c0-8.6,0-12.3,9.8-12.3c6.1,0,11.1,1.2,16,2.5v-7.4  c-6.1-1.2-11.1-1.2-16-1.2c-6.1,0-13.5,1.2-20.9,1.2c-13.5,0-16-1.2-18.4-1.2c-1.2,0-2.5,1.2-2.5,2.5c0,6.1,13.5,1.2,13.5,14.7  V451.6z"/>
<g>
	<defs>
		<path id="SVGID_7_" d="M174.9,463.9c17.2-3.7,44.2-17.2,44.2-51.6c0-33.2-24.6-41.7-44.2-44.2v7.4c20.9,7.4,25.8,30.7,25.8,41.7    c0,23.3-9.8,36.8-25.8,41.7V463.9z M130.7,451.6c0,12.3-9.8,6.1-9.8,12.3c0,2.5,3.7,1.2,6.1,1.2h12.3h28.2c2.5,0,4.9-1.2,7.4-1.2    V459c-3.7,1.2-7.4,1.2-11.1,1.2c-4.9,0-14.7-1.2-14.7-9.8v-65.1c0-8.6,0-12.3,9.8-12.3c6.1,0,11.1,1.2,16,2.5v-7.4    c-6.1-1.2-11.1-1.2-16-1.2c-6.1,0-13.5,1.2-20.9,1.2c-13.5,0-16-1.2-18.4-1.2c-1.2,0-2.5,1.2-2.5,2.5c0,6.1,13.5,1.2,13.5,14.7    V451.6z"/>
	</defs>
	<clipPath id="SVGID_8_">
		<use xlink:href="#SVGID_7_" style="overflow:visible;"/>
	</clipPath>
</g>
<path class="st1" d="M26.3,282.2c0-1.2-1.2-6.1,0-7.4c1.2,0,3.7,2.5,4.9,3.7l50.3,60.2c2.5,1.2,2.5,4.9,4.9,3.7  c1.2,0,1.2-2.5,1.2-4.9l14.7-73.7c1.2-4.9,2.5-8.6,2.5-8.6c1.2-1.2,2.5,1.2,4.9,4.9l14.7,50.3c4.9,18.4-8.6,16-7.4,22.1  c1.2,2.5,4.9,0,8.6,0c3.7,0,6.1-1.2,17.2-3.7c3.7,0,11.1-1.2,14.7-2.5c6.1-1.2,8.6-2.5,7.4-6.1c-1.2-4.9-14.7,6.1-22.1-14.7  l-20.9-76.1c-7.4-17.2,11-16,8.6-20.9c0-2.5,0-2.5-3.7-1.2c-4.9,1.2-8.6,3.7-11,3.7c-2.5,1.2-4.9,1.2-9.8,2.4  c-2.5,0-2.5,2.5-2.5,3.7l-17.2,89.6c0,0-1.2,4.9-2.5,4.9c0,0-1.2-1.2-2.5-2.5l-57.7-66.3c-3.7-4.9-4.9-3.7-7.4-3.7  c-4.9,2.5-9.8,3.7-13.5,4.9c-4.9,1.2-8.6,1.2-9.8,1.2c0,1.2-1.2,2.5-1.2,3.7c2.5,7.4,17.2-4.9,23.3,22.1l17.2,70  c4.9,17.2-9.8,16-8.6,20.9c0,1.2,1.2,2.4,3.7,1.2c2.5-1.2,8.6-2.5,14.7-6.1c8.6-2.5,12.3-3.7,17.2-6.1c4.9-1.2,3.7-3.7,3.7-3.7  c-2.5-6.1-17.2,11.1-24.6-17.2L26.3,282.2z"/>
<g>
	<defs>
		<path id="SVGID_9_" d="M26.3,282.2c0-1.2-1.2-6.1,0-7.4c1.2,0,3.7,2.5,4.9,3.7l50.3,60.2c2.5,1.2,2.5,4.9,4.9,3.7    c1.2,0,1.2-2.5,1.2-4.9l14.7-73.7c1.2-4.9,2.5-8.6,2.5-8.6c1.2-1.2,2.5,1.2,4.9,4.9l14.7,50.3c4.9,18.4-8.6,16-7.4,22.1    c1.2,2.5,4.9,0,8.6,0c3.7,0,6.1-1.2,17.2-3.7c3.7,0,11.1-1.2,14.7-2.5c6.1-1.2,8.6-2.5,7.4-6.1c-1.2-4.9-14.7,6.1-22.1-14.7    l-20.9-76.1c-7.4-17.2,11-16,8.6-20.9c0-2.5,0-2.5-3.7-1.2c-4.9,1.2-8.6,3.7-11,3.7c-2.5,1.2-4.9,1.2-9.8,2.4    c-2.5,0-2.5,2.5-2.5,3.7l-17.2,89.6c0,0-1.2,4.9-2.5,4.9c0,0-1.2-1.2-2.5-2.5l-57.7-66.3c-3.7-4.9-4.9-3.7-7.4-3.7    c-4.9,2.5-9.8,3.7-13.5,4.9c-4.9,1.2-8.6,1.2-9.8,1.2c0,1.2-1.2,2.5-1.2,3.7c2.5,7.4,17.2-4.9,23.3,22.1l17.2,70    c4.9,17.2-9.8,16-8.6,20.9c0,1.2,1.2,2.4,3.7,1.2c2.5-1.2,8.6-2.5,14.7-6.1c8.6-2.5,12.3-3.7,17.2-6.1c4.9-1.2,3.7-3.7,3.7-3.7    c-2.5-6.1-17.2,11.1-24.6-17.2L26.3,282.2z"/>
	</defs>
	<clipPath id="SVGID_10_">
		<use xlink:href="#SVGID_9_" style="overflow:visible;"/>
	</clipPath>
</g>
<path class="st1" d="M201.9,320.2c1.2,0,2.4,0,3.7-1.2c44.2-3.7,50.3-40.5,47.9-60.2c-3.7-27-25.8-43-51.6-41.7v8.6  c14.7,1.2,28.2,13.5,30.7,40.5c3.7,23.3,0,41.7-24.6,45.4h-6.1V320.2z M150.3,278.5c4.9,27,24.6,43,51.6,41.7v-8.6  c-20.9-1.2-29.5-25.8-30.7-43c-3.7-20.9,0-40.5,23.3-43c2.5-1.2,4.9-1.2,7.4,0v-8.6h-3.7C165.1,222,146.7,245.3,150.3,278.5z"/>
<g>
	<defs>
		<path id="SVGID_11_" d="M201.9,320.2c1.2,0,2.4,0,3.7-1.2c44.2-3.7,50.3-40.5,47.9-60.2c-3.7-27-25.8-43-51.6-41.7v8.6    c14.7,1.2,28.2,13.5,30.7,40.5c3.7,23.3,0,41.7-24.6,45.4h-6.1V320.2z M150.3,278.5c4.9,27,24.6,43,51.6,41.7v-8.6    c-20.9-1.2-29.5-25.8-30.7-43c-3.7-20.9,0-40.5,23.3-43c2.5-1.2,4.9-1.2,7.4,0v-8.6h-3.7C165.1,222,146.7,245.3,150.3,278.5z"/>
	</defs>
	<clipPath id="SVGID_12_">
		<use xlink:href="#SVGID_11_" style="overflow:visible;"/>
	</clipPath>
</g>
<path class="st1" d="M596,229.4c3.7,1.2,7.4,2.5,11,3.7c35.6,11.1,31.9,34.4,29.5,40.5c-3.7,11.1-9.8,14.7-16,18.4  c-4.9,1.2-9.8,2.5-11,3.7c0,1.2,7.4,28.2,11,51.6c1.2,2.5,4.9,3.7,6.1,3.7c1.2,1.2,3.7,0,4.9,1.2c1.2,0,1.2,1.2,1.2,3.7  c-1.2,4.9-13.5,4.9-18.4,2.5c-13.5-3.7-14.7-14.7-17.2-25.8l-1.2-6.1v-39.3c13.5,1.2,17.2-6.1,19.6-13.5c3.7-14.7,0-29.5-17.2-34.4  c-1.2,0-1.2-1.2-2.5-1.2V229.4z M542,314.1l22.1-71.2c6.1-18.4-13.5-18.4-11.1-24.6c0-1.2,2.5-1.2,3.7-1.2c7.4,2.4,8.6,3.7,18.4,7.4  c7.4,2.5,13.5,3.7,20.9,4.9v8.6c-4.9-1.2-8.6-1.2-11.1,6.1l-9.8,33.2c-1.2,3.7,4.9,6.1,9.8,7.4c3.7,1.2,7.4,2.5,11.1,2.5v39.3  l-4.9-23.3c-2.5-8.6-3.7-11.1-12.3-13.5c-7.4-1.2-7.4-1.2-8.6,4.9l-9.8,27c-3.7,17.2,13.5,14.7,12.3,20.9c0,2.5-2.5,2.5-6.1,1.2  c-2.5-1.2-7.4-2.4-13.5-4.9c-8.6-2.5-14.7-3.7-22.1-6.1c-17.2-2.5-22.1-4.9-31.9-6.1c-3.7-1.2-34.4-7.4-43-8.6c0,0-20.9-1.2-27-2.5  c-3.7,0-12.3-1.2-18.4-2.5c-2.4,0-3.7,0-3.7-1.2c1.2-4.9,9.8,0,11.1-13.5l2.5-24.6c0-7.4,0-8.6-6.1-8.6l-34.4-3.7  c-7.4,0-7.4,1.2-7.4,8.6l-2.5,20.9c-1.2,18.4,17.2,13.5,16,18.4c0,1.2,1.2,2.5-3.7,2.5c-4.9-1.2-13.5-1.2-20.9-2.5  c-6.1,0-25.8,0-31.9-1.2h-6.1c-4.9,1.2-17.2,0-25.8,0c-8.6,1.2-13.5,1.2-19.6,1.2c-1.2,0-4.9,1.2-4.9-2.5c0-4.9,16,1.2,14.7-16  l-1.2-63.8c0-7.4-1.2-8.6-7.4-7.4l-6.1-1.2c-16,1.2-13.5,19.6-19.6,19.6c-3.7,0-2.5-3.7-2.5-4.9l2.5-19.6c0,0,0-2.4,2.5-2.4  c12.3,0,20.9,1.2,39.3,0c20.9,0,25.8-1.2,39.3-1.2c1.2,0,1.2,2.5,1.2,3.7l2.5,12.3c0,2.5,1.2,7.4-2.5,7.4c-4.9,0,0-16-16-14.7h-6.1  c-6.1,0-7.4,1.2-7.4,8.6l1.2,61.4c-1.2,14.7,14.7,14.7,22.1,14.7c8.6,0,20.9,0,20.9-14.7l4.9-60.2c1.2-16-13.5-11.1-13.5-16  c0-2.5,4.9-2.5,7.4-2.5c3.7,1.2,8.6,1.2,16,2.5h18.4c2.5,0,3.7,1.2,3.7,1.2c-1.2,4.9-11.1,0-12.3,13.5l-1.2,20.9  c0,4.9,0,6.1,3.7,7.4l38.1,2.5c4.9,0,6.1-2.5,6.1-6.1l1.2-19.6c1.2-16-13.5-11.1-13.5-16c1.2-2.5,1.2-2.5,2.5-2.5  c6.1,1.2,11.1,1.2,18.4,2.5c7.4,0,13.5,1.2,20.9,1.2c2.5,0,2.5,1.2,2.5,2.4c0,4.9-11.1-2.4-11.1,11.1l-4.9,65.1  c-1.2,9.8,4.9,16,14.7,17.2c11.1,1.2,16-3.7,17.2-13.5l9.8-61.4c1.2-12.3-14.7-9.8-13.5-16c0-1.2,1.2-2.5,3.7-1.2  c4.9,0,14.7,2.5,36.8,6.1c9.8,1.2,22.1,1.2,33.1,3.7c2.5,0,2.5,2.4,2.5,3.7l-2.5,12.3c0,2.4-1.2,8.6-3.7,7.4  c-6.1-1.2,8.6-14.7-20.9-19.6c-16-3.7-16-2.5-17.2,7.4l-2.5,18.4c-1.2,6.1-1.2,7.4,3.7,8.6l8.6,1.2c11,2.4,16-11.1,19.6-11.1  c1.2,0,2.5,0,2.5,4.9l-6.1,24.6c0,1.2,0,6.1-3.7,6.1c-4.9-1.2,2.5-14.7-12.3-17.2l-8.6-2.5c-7.4,0-7.4,1.2-8.6,9.8l-2.5,17.2  c-2.5,11,6.1,17.2,24.6,20.9C524.8,326.4,537.1,328.8,542,314.1z"/>
<g>
	<defs>
		<path id="SVGID_13_" d="M596,229.4c3.7,1.2,7.4,2.5,11,3.7c35.6,11.1,31.9,34.4,29.5,40.5c-3.7,11.1-9.8,14.7-16,18.4    c-4.9,1.2-9.8,2.5-11,3.7c0,1.2,7.4,28.2,11,51.6c1.2,2.5,4.9,3.7,6.1,3.7c1.2,1.2,3.7,0,4.9,1.2c1.2,0,1.2,1.2,1.2,3.7    c-1.2,4.9-13.5,4.9-18.4,2.5c-13.5-3.7-14.7-14.7-17.2-25.8l-1.2-6.1v-39.3c13.5,1.2,17.2-6.1,19.6-13.5    c3.7-14.7,0-29.5-17.2-34.4c-1.2,0-1.2-1.2-2.5-1.2V229.4z M542,314.1l22.1-71.2c6.1-18.4-13.5-18.4-11.1-24.6    c0-1.2,2.5-1.2,3.7-1.2c7.4,2.4,8.6,3.7,18.4,7.4c7.4,2.5,13.5,3.7,20.9,4.9v8.6c-4.9-1.2-8.6-1.2-11.1,6.1l-9.8,33.2    c-1.2,3.7,4.9,6.1,9.8,7.4c3.7,1.2,7.4,2.5,11.1,2.5v39.3l-4.9-23.3c-2.5-8.6-3.7-11.1-12.3-13.5c-7.4-1.2-7.4-1.2-8.6,4.9    l-9.8,27c-3.7,17.2,13.5,14.7,12.3,20.9c0,2.5-2.5,2.5-6.1,1.2c-2.5-1.2-7.4-2.4-13.5-4.9c-8.6-2.5-14.7-3.7-22.1-6.1    c-17.2-2.5-22.1-4.9-31.9-6.1c-3.7-1.2-34.4-7.4-43-8.6c0,0-20.9-1.2-27-2.5c-3.7,0-12.3-1.2-18.4-2.5c-2.4,0-3.7,0-3.7-1.2    c1.2-4.9,9.8,0,11.1-13.5l2.5-24.6c0-7.4,0-8.6-6.1-8.6l-34.4-3.7c-7.4,0-7.4,1.2-7.4,8.6l-2.5,20.9c-1.2,18.4,17.2,13.5,16,18.4    c0,1.2,1.2,2.5-3.7,2.5c-4.9-1.2-13.5-1.2-20.9-2.5c-6.1,0-25.8,0-31.9-1.2h-6.1c-4.9,1.2-17.2,0-25.8,0    c-8.6,1.2-13.5,1.2-19.6,1.2c-1.2,0-4.9,1.2-4.9-2.5c0-4.9,16,1.2,14.7-16l-1.2-63.8c0-7.4-1.2-8.6-7.4-7.4l-6.1-1.2    c-16,1.2-13.5,19.6-19.6,19.6c-3.7,0-2.5-3.7-2.5-4.9l2.5-19.6c0,0,0-2.4,2.5-2.4c12.3,0,20.9,1.2,39.3,0    c20.9,0,25.8-1.2,39.3-1.2c1.2,0,1.2,2.5,1.2,3.7l2.5,12.3c0,2.5,1.2,7.4-2.5,7.4c-4.9,0,0-16-16-14.7h-6.1    c-6.1,0-7.4,1.2-7.4,8.6l1.2,61.4c-1.2,14.7,14.7,14.7,22.1,14.7c8.6,0,20.9,0,20.9-14.7l4.9-60.2c1.2-16-13.5-11.1-13.5-16    c0-2.5,4.9-2.5,7.4-2.5c3.7,1.2,8.6,1.2,16,2.5h18.4c2.5,0,3.7,1.2,3.7,1.2c-1.2,4.9-11.1,0-12.3,13.5l-1.2,20.9    c0,4.9,0,6.1,3.7,7.4l38.1,2.5c4.9,0,6.1-2.5,6.1-6.1l1.2-19.6c1.2-16-13.5-11.1-13.5-16c1.2-2.5,1.2-2.5,2.5-2.5    c6.1,1.2,11.1,1.2,18.4,2.5c7.4,0,13.5,1.2,20.9,1.2c2.5,0,2.5,1.2,2.5,2.4c0,4.9-11.1-2.4-11.1,11.1l-4.9,65.1    c-1.2,9.8,4.9,16,14.7,17.2c11.1,1.2,16-3.7,17.2-13.5l9.8-61.4c1.2-12.3-14.7-9.8-13.5-16c0-1.2,1.2-2.5,3.7-1.2    c4.9,0,14.7,2.5,36.8,6.1c9.8,1.2,22.1,1.2,33.1,3.7c2.5,0,2.5,2.4,2.5,3.7l-2.5,12.3c0,2.4-1.2,8.6-3.7,7.4    c-6.1-1.2,8.6-14.7-20.9-19.6c-16-3.7-16-2.5-17.2,7.4l-2.5,18.4c-1.2,6.1-1.2,7.4,3.7,8.6l8.6,1.2c11,2.4,16-11.1,19.6-11.1    c1.2,0,2.5,0,2.5,4.9l-6.1,24.6c0,1.2,0,6.1-3.7,6.1c-4.9-1.2,2.5-14.7-12.3-17.2l-8.6-2.5c-7.4,0-7.4,1.2-8.6,9.8l-2.5,17.2    c-2.5,11,6.1,17.2,24.6,20.9C524.8,326.4,537.1,328.8,542,314.1z"/>
	</defs>
	<clipPath id="SVGID_14_">
		<use xlink:href="#SVGID_13_" style="overflow:visible;"/>
	</clipPath>
</g>
<path class="st1" d="M462.2,466.3c-20.9,0-25.8-2.5-36.8-17.2c-7.4-11.1-14.7-23.3-14.7-23.3c0-1.2-1.2-2.5-1.2-2.5v-11  c14.7-1.2,14.7-7.4,14.7-16c0-11-4.9-20.9-14.7-23.3v-6.1c30.7,0,34.4,19.6,34.4,25.8c0,9.8-4.9,14.7-9.8,17.2  c-3.7,3.7-8.6,4.9-8.6,6.1c0,1.2,12.3,20.9,25.8,35.6c7.4,11,24.6,9.8,30.7,6.1c2.5-2.5,4.9-4.9,4.9-12.3v-16c0-4.9,0-6.1-2.4-8.6  l-20.9-41.7c-6.1-9.8-13.5-4.9-13.5-9.8c0-2.5,1.2-2.5,4.9-2.5c1.2,0,6.1,1.2,14.7,1.2c4.9,0,11.1,0,19.6-1.2c1.2,0,2.4,1.2,2.4,2.5  c0,3.7-7.4,2.5-7.4,7.4c0,0,0,1.2,1.2,4.9l13.5,25.8c1.2,4.9,1.2,7.4,2.5,7.4c1.2,0,1.2-1.2,3.7-4.9l12.3-22.1  c2.5-4.9,2.5-6.1,2.5-7.4c0-8.6-13.5-6.1-13.5-9.8c0-2.5,1.2-2.5,2.5-2.5h12.3c11.1,0,13.5-1.2,17.2-1.2c2.5,0,2.5,1.2,2.5,2.5  c0,3.7-6.1,0-14.7,16l-17.2,34.4c-2.5,2.5-2.5,2.5-2.5,8.6v20.9c0,17.2,17.2,7.4,17.2,14.7c0,1.2-2.5,2.5-4.9,2.5H499H462.2z   M409.4,423.4c-2.5-3.7-4.9-3.7-11.1-3.7c-3.7,0-3.7,1.2-3.7,4.9v24.5c0,14.7,13.5,8.6,13.5,14.7c0,1.2-1.2,1.2-4.9,1.2h-11.1h-61.4  h-39.3h-14.7c-2.4,0-4.9,1.2-4.9-1.2c0-4.9,8.6-2.5,8.6-12.3c0-1.2-1.2-4.9-2.5-8.6c-3.7-9.8-4.9-11-8.6-11h-13.5v-8.6h9.8  c2.5,0,3.7,0,3.7-1.2c0,0,0-2.5-1.2-3.7l-9.8-24.6c-1.2-1.2-1.2-2.5-1.2-2.5h-1.2V373l2.5-3.7c1.2-1.2,2.5-4.9,3.7-4.9  c1.2,0,2.5,0,3.7,4.9l36.8,82.3c2.5,4.9,6.1,8.6,11,7.4c7.4,0,8.6-4.9,7.4-11.1v-65.1c0-12.3-14.7-8.6-14.7-13.5  c0-2.5,3.7-2.5,4.9-2.5c6.1,0,12.3,1.2,17.2,1.2c4.9,0,9.8-1.2,18.4-1.2c3.7,0,3.7,0,3.7,2.5c0,4.9-9.8,0-9.8,12.3v62.6  c0,13.5,9.8,14.7,18.4,14.7c7.4,0,16-1.2,16-13.5v-60.2c0-16-14.7-11.1-14.7-16c0-1.2,1.2-2.5,2.4-2.5c6.1,0,9.8,1.2,18.4,1.2  c9.8,0,18.4-1.2,28.2-1.2v6.1h-6.1c-4.9,0-8.6,0-8.6,8.6v27c0,3.7,3.7,3.7,8.6,3.7h6.1V423.4z M255.9,431.9h-12.3  c-2.5,0-4.9,0-8.6,8.6c-1.2,2.4-2.5,8.6-2.5,11.1c0,9.8,14.7,7.4,14.7,12.3c0,2.5-4.9,1.2-7.4,1.2h-13.5h-12.3  c-1.2,0-3.7,1.2-3.7-1.2c0-3.7,7.4-2.5,9.8-11.1l35.6-79.8v18.4c0,0,0,1.2-1.2,1.2l-9.8,24.6c0,2.5-1.2,3.7-1.2,4.9  c0,1.2,1.2,1.2,3.7,1.2h8.6V431.9z"/>
<g>
	<defs>
		<path id="SVGID_15_" d="M462.2,466.3c-20.9,0-25.8-2.5-36.8-17.2c-7.4-11.1-14.7-23.3-14.7-23.3c0-1.2-1.2-2.5-1.2-2.5v-11    c14.7-1.2,14.7-7.4,14.7-16c0-11-4.9-20.9-14.7-23.3v-6.1c30.7,0,34.4,19.6,34.4,25.8c0,9.8-4.9,14.7-9.8,17.2    c-3.7,3.7-8.6,4.9-8.6,6.1c0,1.2,12.3,20.9,25.8,35.6c7.4,11,24.6,9.8,30.7,6.1c2.5-2.5,4.9-4.9,4.9-12.3v-16c0-4.9,0-6.1-2.4-8.6    l-20.9-41.7c-6.1-9.8-13.5-4.9-13.5-9.8c0-2.5,1.2-2.5,4.9-2.5c1.2,0,6.1,1.2,14.7,1.2c4.9,0,11.1,0,19.6-1.2    c1.2,0,2.4,1.2,2.4,2.5c0,3.7-7.4,2.5-7.4,7.4c0,0,0,1.2,1.2,4.9l13.5,25.8c1.2,4.9,1.2,7.4,2.5,7.4c1.2,0,1.2-1.2,3.7-4.9    l12.3-22.1c2.5-4.9,2.5-6.1,2.5-7.4c0-8.6-13.5-6.1-13.5-9.8c0-2.5,1.2-2.5,2.5-2.5h12.3c11.1,0,13.5-1.2,17.2-1.2    c2.5,0,2.5,1.2,2.5,2.5c0,3.7-6.1,0-14.7,16l-17.2,34.4c-2.5,2.5-2.5,2.5-2.5,8.6v20.9c0,17.2,17.2,7.4,17.2,14.7    c0,1.2-2.5,2.5-4.9,2.5H499H462.2z M409.4,423.4c-2.5-3.7-4.9-3.7-11.1-3.7c-3.7,0-3.7,1.2-3.7,4.9v24.5    c0,14.7,13.5,8.6,13.5,14.7c0,1.2-1.2,1.2-4.9,1.2h-11.1h-61.4h-39.3h-14.7c-2.4,0-4.9,1.2-4.9-1.2c0-4.9,8.6-2.5,8.6-12.3    c0-1.2-1.2-4.9-2.5-8.6c-3.7-9.8-4.9-11-8.6-11h-13.5v-8.6h9.8c2.5,0,3.7,0,3.7-1.2c0,0,0-2.5-1.2-3.7l-9.8-24.6    c-1.2-1.2-1.2-2.5-1.2-2.5h-1.2V373l2.5-3.7c1.2-1.2,2.5-4.9,3.7-4.9c1.2,0,2.5,0,3.7,4.9l36.8,82.3c2.5,4.9,6.1,8.6,11,7.4    c7.4,0,8.6-4.9,7.4-11.1v-65.1c0-12.3-14.7-8.6-14.7-13.5c0-2.5,3.7-2.5,4.9-2.5c6.1,0,12.3,1.2,17.2,1.2c4.9,0,9.8-1.2,18.4-1.2    c3.7,0,3.7,0,3.7,2.5c0,4.9-9.8,0-9.8,12.3v62.6c0,13.5,9.8,14.7,18.4,14.7c7.4,0,16-1.2,16-13.5v-60.2c0-16-14.7-11.1-14.7-16    c0-1.2,1.2-2.5,2.4-2.5c6.1,0,9.8,1.2,18.4,1.2c9.8,0,18.4-1.2,28.2-1.2v6.1h-6.1c-4.9,0-8.6,0-8.6,8.6v27c0,3.7,3.7,3.7,8.6,3.7    h6.1V423.4z M255.9,431.9h-12.3c-2.5,0-4.9,0-8.6,8.6c-1.2,2.4-2.5,8.6-2.5,11.1c0,9.8,14.7,7.4,14.7,12.3c0,2.5-4.9,1.2-7.4,1.2    h-13.5h-12.3c-1.2,0-3.7,1.2-3.7-1.2c0-3.7,7.4-2.5,9.8-11.1l35.6-79.8v18.4c0,0,0,1.2-1.2,1.2l-9.8,24.6c0,2.5-1.2,3.7-1.2,4.9    c0,1.2,1.2,1.2,3.7,1.2h8.6V431.9z"/>
	</defs>
	<clipPath id="SVGID_16_">
		<use xlink:href="#SVGID_15_" style="overflow:visible;"/>
	</clipPath>
</g>
<path class="st2" d="M693.6,542.6h5.7c2.7,0,4.6-0.4,5.6-1.2c1-0.8,1.5-1.9,1.5-3.2c0-0.8-0.3-1.6-0.7-2.3c-0.5-0.7-1.1-1.2-2-1.5  c-0.9-0.3-2.4-0.5-4.7-0.5h-5.3V542.6z M688.9,558.9v-29h10c3.4,0,5.9,0.2,7.4,0.8c1.5,0.5,2.7,1.5,3.6,2.8c0.9,1.3,1.4,2.8,1.4,4.3  c0,2.1-0.8,4-2.3,5.5c-1.5,1.6-3.5,2.5-6,2.7c1,0.4,1.9,0.9,2.5,1.5c1.2,1.1,2.6,3.1,4.3,5.7l3.5,5.7h-5.7l-2.6-4.6  c-2-3.6-3.6-5.8-4.9-6.7c-0.9-0.7-2.1-1-3.8-1h-2.7v12.3H688.9z M700.7,521.5c-3.8,0-7.5,1-11.1,2.9c-3.6,1.9-6.4,4.7-8.4,8.3  c-2,3.6-3,7.4-3,11.3c0,3.9,1,7.6,3,11.2c2,3.6,4.8,6.3,8.3,8.3c3.6,2,7.3,3,11.2,3c3.9,0,7.6-1,11.2-3c3.6-2,6.3-4.8,8.3-8.3  c2-3.6,3-7.3,3-11.2c0-3.9-1-7.7-3-11.3c-2-3.6-4.8-6.4-8.4-8.3C708.2,522.5,704.5,521.5,700.7,521.5z M700.7,517.1  c4.5,0,8.9,1.2,13.3,3.5c4.3,2.3,7.7,5.6,10.1,10c2.4,4.3,3.6,8.8,3.6,13.5c0,4.6-1.2,9.1-3.6,13.4c-2.4,4.3-5.7,7.6-10,10  c-4.3,2.4-8.7,3.6-13.4,3.6c-4.7,0-9.2-1.2-13.4-3.6c-4.3-2.4-7.6-5.7-10-10c-2.4-4.3-3.6-8.7-3.6-13.4c0-4.7,1.2-9.2,3.6-13.5  c2.4-4.3,5.8-7.7,10.1-10C691.8,518.2,696.2,517.1,700.7,517.1z"/>
<g>
	<defs>
		<path id="SVGID_17_" d="M693.6,542.6h5.7c2.7,0,4.6-0.4,5.6-1.2c1-0.8,1.5-1.9,1.5-3.2c0-0.8-0.3-1.6-0.7-2.3    c-0.5-0.7-1.1-1.2-2-1.5c-0.9-0.3-2.4-0.5-4.7-0.5h-5.3V542.6z M688.9,558.9v-29h10c3.4,0,5.9,0.2,7.4,0.8    c1.5,0.5,2.7,1.5,3.6,2.8c0.9,1.3,1.4,2.8,1.4,4.3c0,2.1-0.8,4-2.3,5.5c-1.5,1.6-3.5,2.5-6,2.7c1,0.4,1.9,0.9,2.5,1.5    c1.2,1.1,2.6,3.1,4.3,5.7l3.5,5.7h-5.7l-2.6-4.6c-2-3.6-3.6-5.8-4.9-6.7c-0.9-0.7-2.1-1-3.8-1h-2.7v12.3H688.9z M700.7,521.5    c-3.8,0-7.5,1-11.1,2.9c-3.6,1.9-6.4,4.7-8.4,8.3c-2,3.6-3,7.4-3,11.3c0,3.9,1,7.6,3,11.2c2,3.6,4.8,6.3,8.3,8.3    c3.6,2,7.3,3,11.2,3c3.9,0,7.6-1,11.2-3c3.6-2,6.3-4.8,8.3-8.3c2-3.6,3-7.3,3-11.2c0-3.9-1-7.7-3-11.3c-2-3.6-4.8-6.4-8.4-8.3    C708.2,522.5,704.5,521.5,700.7,521.5z M700.7,517.1c4.5,0,8.9,1.2,13.3,3.5c4.3,2.3,7.7,5.6,10.1,10c2.4,4.3,3.6,8.8,3.6,13.5    c0,4.6-1.2,9.1-3.6,13.4c-2.4,4.3-5.7,7.6-10,10c-4.3,2.4-8.7,3.6-13.4,3.6c-4.7,0-9.2-1.2-13.4-3.6c-4.3-2.4-7.6-5.7-10-10    c-2.4-4.3-3.6-8.7-3.6-13.4c0-4.7,1.2-9.2,3.6-13.5c2.4-4.3,5.8-7.7,10.1-10C691.8,518.2,696.2,517.1,700.7,517.1z"/>
	</defs>
	<clipPath id="SVGID_18_">
		<use xlink:href="#SVGID_17_" style="overflow:visible;"/>
	</clipPath>
</g>
</svg>