<?xml version="1.0" encoding="utf-8"?>
<!-- Generator: Adobe Illustrator 28.3.0, SVG Export Plug-In . SVG Version: 6.00 Build 0)  -->
<svg version="1.1" id="Layer_1" xmlns="http://www.w3.org/2000/svg" xmlns:xlink="http://www.w3.org/1999/xlink" x="0px" y="0px"
	 viewBox="0 0 1080 1080" style="enable-background:new 0 0 1080 1080;" xml:space="preserve">
<style type="text/css">
	.st0{fill:#F06724;}
	.st1{fill:#FFFFFF;}
</style>
<g>
	<polygon class="st0" points="540,185.6 35,690.6 1045,690.6 	"/>
	<polygon class="st1" points="672.3,379.6 540,247.3 407.7,379.6 540,511.9 540,379.6 	"/>
	<g>
		<g>
			<path class="st0" d="M36,779.6h55.3v16.3H72.6v97.6H54.7v-97.6H36V779.6z"/>
			<path class="st0" d="M164.2,893.4c-1-2.9-1.6-4.7-1.6-14v-17.9c0-10.6-3.6-14.5-11.7-14.5h-6.2v46.3h-17.9V779.6h27
				c18.5,0,26.5,8.6,26.5,26.2v8.9c0,11.7-3.7,19.2-11.7,22.9v0.3c8.9,3.7,11.9,12.2,11.9,24.1v17.6c0,5.5,0.2,9.6,1.9,13.8H164.2z
				 M144.6,795.8v35h7c6.7,0,10.7-2.9,10.7-12v-11.2c0-8.1-2.8-11.7-9.1-11.7H144.6z"/>
			<path class="st0" d="M277.7,893.4h-18.1l-3.1-20.7h-21.9l-3.1,20.7h-16.4l18.2-113.8h26.2L277.7,893.4z M236.8,857.3h17.2
				l-8.5-57.6h-0.3L236.8,857.3z"/>
			<path class="st0" d="M313.6,779.6h17.9v113.8h-17.9V779.6z"/>
			<path class="st0" d="M372.1,779.6H390v97.6h29.4v16.3h-47.3V779.6z"/>
			<path class="st0" d="M508.4,805.7v4.1c0,11.7-3.6,19-11.5,22.8v0.3c9.6,3.7,13.3,12.2,13.3,24.2v9.3c0,17.6-9.3,27-27.2,27h-28.1
				V779.6h27C500.4,779.6,508.4,788.2,508.4,805.7z M472.8,795.8v30.1h7c6.7,0,10.7-2.9,10.7-12v-6.3c0-8.1-2.8-11.7-9.1-11.7H472.8
				z M472.8,842.2v35H483c6,0,9.3-2.8,9.3-11.2V856c0-10.6-3.4-13.8-11.5-13.8H472.8z"/>
			<path class="st0" d="M548.5,779.6h17.9v97.6h29.4v16.3h-47.3V779.6z"/>
			<path class="st0" d="M689.2,893.4h-18.1l-3.1-20.7h-22l-3.1,20.7h-16.4l18.2-113.8H671L689.2,893.4z M648.4,857.3h17.2l-8.5-57.6
				h-0.3L648.4,857.3z"/>
			<path class="st0" d="M774.7,779.6v15.9l-34,81.6h34v16.3h-52.4v-15.9l34-81.6H724v-16.3H774.7z"/>
			<path class="st0" d="M830.8,827.5h24.5v16.3h-24.5v33.3h30.9v16.3h-48.8V779.6h48.8v16.3h-30.9V827.5z"/>
			<path class="st0" d="M937.8,893.4c-1-2.9-1.6-4.7-1.6-14v-17.9c0-10.6-3.6-14.5-11.7-14.5h-6.2v46.3h-17.9V779.6h27
				c18.5,0,26.5,8.6,26.5,26.2v8.9c0,11.7-3.7,19.2-11.7,22.9v0.3c8.9,3.7,11.9,12.2,11.9,24.1v17.6c0,5.5,0.2,9.6,2,13.8H937.8z
				 M918.3,795.8v35h7c6.7,0,10.7-2.9,10.7-12v-11.2c0-8.1-2.8-11.7-9.1-11.7H918.3z"/>
			<path class="st0" d="M1017.5,778.3c17.4,0,26.3,10.4,26.3,28.6v3.6h-16.9v-4.7c0-8.1-3.3-11.2-8.9-11.2c-5.7,0-8.9,3.1-8.9,11.2
				c0,8.3,3.6,14.5,15.3,24.7c15,13.2,19.7,22.6,19.7,35.6c0,18.2-9.1,28.6-26.7,28.6c-17.6,0-26.7-10.4-26.7-28.6v-7h16.9v8.1
				c0,8.1,3.6,11.1,9.3,11.1c5.7,0,9.3-2.9,9.3-11.1c0-8.3-3.6-14.5-15.3-24.7c-15-13.2-19.7-22.6-19.7-35.6
				C991.1,788.7,1000.1,778.3,1017.5,778.3z"/>
		</g>
	</g>
</g>
</svg>
